<?xml version="1.0" encoding="UTF-8"?>
<svg width="300px" height="300px" viewBox="0 0 300 300" version="1.1" xmlns="http://www.w3.org/2000/svg" xmlns:xlink="http://www.w3.org/1999/xlink">
    <!-- Generator: Sketch 42 (36781) - http://www.bohemiancoding.com/sketch -->
    <title>Slice Copy</title>
    <desc>Created with Sketch.</desc>
    <defs>
        <linearGradient x1="28.6567991%" y1="15.2215849%" x2="87.017977%" y2="107.998609%" id="linearGradient-1">
            <stop stop-color="#9012FE" offset="0%"></stop>
            <stop stop-color="#00D86E" offset="100%"></stop>
        </linearGradient>
    </defs>
    <g id="Page-1" stroke="none" stroke-width="1" fill="none" fill-rule="evenodd">
        <path d="M87.0315955,74.1234848 C66.6042994,81.4837711 52,101.036377 52,124 C52,153.271092 75.7289083,177 105,177 C109.824835,177 114.49909,176.355289 118.941316,175.147317 C118.285642,199.126424 114.548658,275.921 114.548658,275.921 L189.518698,275.921 C189.518698,275.921 184.333048,188.963953 183.963513,171.458095 C188.840999,173.106385 194.066142,174 199.5,174 C226.28581,174 248,152.28581 248,125.5 C248,104.971386 235.245798,87.4216755 217.22917,80.3426464 C212.339121,48.4369421 184.773337,24 151.5,24 C120.424254,24 94.3270302,45.3155851 87.0315999,74.1234832 Z" id="Combined-Shape-Copy-5" stroke="url(#linearGradient-1)" stroke-width="22"></path>
    </g>
</svg>